<svg xmlns="http://www.w3.org/2000/svg" viewBox="0 0 512 512">
  <rect width="512" height="512" fill="#000408"/>

  <!-- 옅은 헥스 격자 배경 -->
  <g stroke="rgba(120,240,230,0.10)" stroke-width="2" fill="none">
    <polygon points="120,180 152,162 184,180 184,216 152,234 120,216"/>
    <polygon points="184,180 216,162 248,180 248,216 216,234 184,216"/>
    <polygon points="248,180 280,162 312,180 312,216 280,234 248,216"/>
    <polygon points="312,180 344,162 376,180 376,216 344,234 312,216"/>
    <polygon points="376,180 408,162 440,180 440,216 408,234 376,216"/>
    <polygon points="120,252 152,234 184,252 184,288 152,306 120,288"/>
    <polygon points="248,252 280,234 312,252 312,288 280,306 248,288"/>
    <polygon points="376,252 408,234 440,252 440,288 408,306 376,288"/>
    <polygon points="184,324 216,306 248,324 248,360 216,378 184,360"/>
    <polygon points="312,324 344,306 376,324 376,360 344,378 312,360"/>
  </g>

  <!-- 메인 헥스 (중심) -->
  <polygon points="216,234 280,234 312,288 280,342 216,342 184,288"
           fill="rgba(20,180,180,0.18)"
           stroke="rgba(140,245,235,0.95)"
           stroke-width="6"/>

  <!-- 코너 브래킷 -->
  <g stroke="rgba(120,240,230,0.85)" stroke-width="6" fill="none" stroke-linecap="square">
    <path d="M 36 36 L 96 36"/>
    <path d="M 36 36 L 36 96"/>
    <path d="M 476 36 L 416 36"/>
    <path d="M 476 36 L 476 96"/>
    <path d="M 36 476 L 96 476"/>
    <path d="M 36 476 L 36 416"/>
    <path d="M 476 476 L 416 476"/>
    <path d="M 476 476 L 476 416"/>
  </g>

  <!-- 도시 점 (중심) -->
  <circle cx="248" cy="288" r="14" fill="#fff5b0"/>
  <circle cx="248" cy="288" r="22" fill="none" stroke="rgba(255,220,100,0.85)" stroke-width="3"/>
</svg>
